# xmcd
#
# Track frame offsets: 
#        150
#        20537
#        41194
#        61750
#        83012
#        102823
#        123015
#        144400
#        165665
#        191567
#
# Disc length: 2809 seconds
#
# Revision: 0
# Processed by: cddbd v1.5.2PL0 Copyright (c) Steve Scherf et al.
# Submitted via: ExactAudioCopy v1.0b6
#
DISCID=780af70a
DTITLE=BURNOUT SYNDROMES - 孔雀
DYEAR=2018
DGENRE=JPOP
TTITLE0=ヨロコビノウタ
TTITLE1=花一匁
TTITLE2=若草山スターマイン
TTITLE3=吾輩は猫である
TTITLE4=Melodic Surfers
TTITLE5=ハイスコアガール
TTITLE6=君をアンインストールできたなら
TTITLE7=POKER-FACE
TTITLE8=斜陽
TTITLE9=Dragonfly
EXTD=
EXTT0=
EXTT1=
EXTT2=
EXTT3=
EXTT4=
EXTT5=
EXTT6=
EXTT7=
EXTT8=
EXTT9=
PLAYORDER=
